<?xml version="1.0" encoding="utf-8"?>
<!-- Generator: Adobe Illustrator 21.1.0, SVG Export Plug-In . SVG Version: 6.00 Build 0)  -->
<svg version="1.1" id="Capa_1" xmlns="http://www.w3.org/2000/svg" xmlns:xlink="http://www.w3.org/1999/xlink" x="0px" y="0px"
	 viewBox="0 0 718 113" enable-background="new 0 0 718 113" xml:space="preserve">
<path fill="#FFFFFF" d="M14.524,7.457h34.521c3.754,0,7.368,0.346,10.854,1.028c3.486,0.902,7.023,2.741,10.594,5.522
	c3,2.101,5.437,5.095,7.304,8.982c1.959,3.769,2.938,8.22,2.938,13.356c0,6.93-2.487,13.24-7.452,18.932
	c-5.1,5.988-12.56,9.073-22.364,9.242H28.943v36.528H14.524V7.457z M28.943,51.177h21.405c5.366-0.084,9.403-1.719,12.107-4.902
	c2.571-3.093,3.861-6.529,3.861-10.311c0-3.144-0.521-5.784-1.571-7.939c-1.092-1.93-2.619-3.458-4.578-4.58
	c-2.973-1.844-6.417-2.724-10.339-2.64H28.943V51.177z"/>
<path fill="#FFFFFF" d="M181.484,7.458h37.212c7.939,0,14.412,2.056,19.426,6.164c6.031,4.662,9.178,11.319,9.439,19.96
	c-0.176,12.715-6.304,21.356-18.39,25.936l22.047,41.527h-17.138L214.37,61.053h-18.467v39.992h-14.419V7.458z M195.903,48.48
	h21.877c5.409-0.086,9.467-1.627,12.178-4.628c2.663-2.79,3.994-6.226,3.994-10.298c-0.092-4.894-1.683-8.431-4.782-10.622
	c-2.445-1.929-5.98-2.893-10.607-2.893h-22.659V48.48z"/>
<path fill="#FFFFFF" d="M268.099,7.458h14.425v60.392c0.086,6.381,1.959,11.242,5.621,14.58c3.578,3.515,8.178,5.267,13.805,5.267
	c5.621,0,10.27-1.752,13.932-5.267c3.571-3.338,5.404-8.199,5.495-14.58V7.458h14.417v61.878
	c-0.176,9.847-3.423,17.651-9.734,23.427c-6.36,5.95-14.397,8.967-24.111,9.051c-9.543-0.084-17.516-3.101-23.912-9.038
	c-6.536-5.769-9.847-13.573-9.939-23.399V7.458z"/>
<path fill="#FFFFFF" d="M471.095,7.457h34.521c3.754,0,7.368,0.346,10.854,1.028c3.488,0.902,7.023,2.741,10.594,5.522
	c3,2.101,5.437,5.095,7.304,8.982c1.958,3.769,2.938,8.22,2.938,13.356c0,6.93-2.487,13.24-7.452,18.932
	c-5.1,5.988-12.56,9.073-22.364,9.242h-21.976v36.528h-14.419V7.457z M485.514,51.177h21.405c5.368-0.084,9.403-1.719,12.109-4.902
	c2.571-3.093,3.859-6.529,3.859-10.311c0-3.144-0.521-5.784-1.569-7.939c-1.093-1.93-2.621-3.458-4.58-4.58
	c-2.971-1.844-6.417-2.724-10.339-2.64h-20.884V51.177z"/>
<path fill="#FFFFFF" d="M557.105,7.457h34.519c3.756,0,7.368,0.346,10.854,1.028c3.488,0.902,7.023,2.741,10.594,5.522
	c3.001,2.101,5.437,5.095,7.304,8.982c1.958,3.769,2.938,8.22,2.938,13.356c0,6.93-2.487,13.24-7.452,18.932
	c-5.099,5.988-12.558,9.073-22.364,9.242h-21.976v36.528h-14.417V7.457z M571.522,51.177h21.405
	c5.368-0.084,9.405-1.719,12.109-4.902c2.571-3.093,3.859-6.529,3.859-10.311c0-3.144-0.521-5.784-1.569-7.939
	c-1.092-1.93-2.621-3.458-4.58-4.58c-2.971-1.844-6.415-2.724-10.339-2.64h-20.884V51.177z"/>
<path fill="#FFFFFF" d="M644.296,78.372c7.579,6.134,16.602,9.242,27.061,9.325c12.375-0.167,18.653-4.514,18.827-13.036
	c0.094-6.98-4.048-11.178-12.41-12.596c-3.838-0.513-8.036-1.092-12.614-1.732c-8.186-1.331-14.412-4.305-18.679-8.931
	c-4.404-4.754-6.6-10.536-6.6-17.342c0-8.184,2.76-14.777,8.289-19.791c5.346-4.967,12.938-7.495,22.772-7.579
	c11.833,0.26,22.124,3.479,30.864,9.671l-8.036,11.65c-7.141-4.634-15.009-7.029-23.588-7.205c-4.445,0-8.149,1.092-11.114,3.275
	c-3.093,2.275-4.685,5.655-4.769,10.15c0,2.696,1.064,5.141,3.198,7.325c2.134,2.224,5.557,3.769,10.262,4.629
	c2.612,0.429,6.183,0.916,10.712,1.472c8.926,1.204,15.524,4.353,19.793,9.446c4.228,5.012,6.34,10.839,6.34,17.475
	c-0.479,17.904-11.614,26.983-33.414,27.237c-14.101,0-26.217-4.256-36.36-12.771L644.296,78.372z"/>
<polyline fill="#FFFFFF" points="438.914,101.045 454.127,101.045 419.516,7.459 407.436,7.459 372.817,101.045 388.101,101.045 
	394.812,81.829 394.75,81.829 399.635,67.545 399.596,67.545 413.373,26.602 413.635,26.602 432.392,81.829 "/>
<g>
	<defs>
		<polygon id="SVGID_5_" points="409.201,64.597 404.838,77.625 413.562,77.625 422.287,77.625 417.924,64.597 413.562,51.569 		"/>
	</defs>
	<linearGradient id="SVGID_2_" gradientUnits="userSpaceOnUse" x1="404.8384" y1="64.5967" x2="422.287" y2="64.5967">
		<stop  offset="0" style="stop-color:#C1272D"/>
		<stop  offset="1" style="stop-color:#91333F"/>
	</linearGradient>
	<use xlink:href="#SVGID_5_"  overflow="visible" fill="url(#SVGID_2_)"/>
	<clipPath id="SVGID_3_">
		<use xlink:href="#SVGID_5_"  overflow="visible"/>
	</clipPath>
	
		<linearGradient id="SVGID_4_" gradientUnits="userSpaceOnUse" x1="-85.0109" y1="2060.5183" x2="-83.1388" y2="2060.5183" gradientTransform="matrix(9.3202 0 0 -9.3202 1197.1537 19268.9609)">
		<stop  offset="0" style="stop-color:#C1272D"/>
		<stop  offset="1" style="stop-color:#91333F"/>
	</linearGradient>
	<rect x="404.838" y="51.569" clip-path="url(#SVGID_3_)" fill="url(#SVGID_4_)" width="17.449" height="26.056"/>
</g>
<g>
	<defs>
		<rect id="SVGID_9_" x="128.521" y="47.584" width="15.803" height="12.566"/>
	</defs>
	<linearGradient id="SVGID_6_" gradientUnits="userSpaceOnUse" x1="128.5207" y1="53.8671" x2="144.3236" y2="53.8671">
		<stop  offset="0" style="stop-color:#C1272D"/>
		<stop  offset="1" style="stop-color:#91333F"/>
	</linearGradient>
	<use xlink:href="#SVGID_9_"  overflow="visible" fill="url(#SVGID_6_)"/>
	<clipPath id="SVGID_7_">
		<use xlink:href="#SVGID_9_"  overflow="visible"/>
	</clipPath>
	
		<linearGradient id="SVGID_8_" gradientUnits="userSpaceOnUse" x1="-99.5968" y1="2069.4009" x2="-97.7245" y2="2069.4009" gradientTransform="matrix(8.4402 0 0 -8.4402 969.1411 17520.0879)">
		<stop  offset="0" style="stop-color:#C1272D"/>
		<stop  offset="1" style="stop-color:#91333F"/>
	</linearGradient>
	<rect x="128.521" y="47.584" clip-path="url(#SVGID_7_)" fill="url(#SVGID_8_)" width="15.803" height="12.566"/>
</g>
<polygon fill="#FFFFFF" points="161.375,7.458 100.532,7.458 100.532,101.045 161.375,101.045 161.375,87.696 114.951,87.696 
	114.951,65.537 114.918,65.528 114.918,41.185 114.951,41.194 114.951,20.806 161.375,20.806 "/>
</svg>
